<svg xmlns="http://www.w3.org/2000/svg" viewBox="0 0 192 192" width="192" height="192">
  <!-- Background: brand orange, rounded square -->
  <rect width="192" height="192" rx="40" fill="#F4975F"/>
  <!-- Plane: Lucide Plane path scaled to ~104px, centered -->
  <!-- Original path is 24×24; scale=4.33 → 104px; offset=(192-104)/2=44 -->
  <g transform="translate(44 44) scale(4.33)" fill="white">
    <path d="M17.8 19.2 16 11l3.5-3.5C21 6 21 4 19 4s-2 1-3.5 2.5L12 10 3.8 8.2c-.5-.1-.9.1-1.1.5l-.3.5c-.2.5-.1 1 .3 1.3L9 14l-2 3H4l-1 1 3 2 2 3 1-1v-3l3-2 3.5 5.3c.3.4.8.5 1.3.3l.5-.2c.4-.3.6-.7.5-1.2z"/>
  </g>
</svg>
